<!DOCTYPE svg PUBLIC "-//W3C//DTD SVG 1.1//EN" "http://www.w3.org/Graphics/SVG/1.1/DTD/svg11.dtd">
<!-- Uploaded to: SVG Repo, www.svgrepo.com, Transformed by: SVG Repo Mixer Tools -->
<svg width="64px" height="64px" viewBox="0 0 48 48" fill="none" xmlns="http://www.w3.org/2000/svg">
<g id="SVGRepo_bgCarrier" stroke-width="0"/>
<g id="SVGRepo_tracerCarrier" stroke-linecap="round" stroke-linejoin="round"/>
<g id="SVGRepo_iconCarrier"> <rect width="48" height="48" fill="white" fill-opacity="0.01"/> <path d="M42 6H6C4.89543 6 4 6.89543 4 8V34C4 35.1046 4.89543 36 6 36H42C43.1046 36 44 35.1046 44 34V8C44 6.89543 43.1046 6 42 6Z" stroke="#ddd" stroke-width="4" stroke-linecap="round" stroke-linejoin="round"/> <path d="M12 14L36 14" stroke="#ddd" stroke-width="4" stroke-linecap="round" stroke-linejoin="round"/> <path d="M12 21H18" stroke="#ddd" stroke-width="4" stroke-linecap="round" stroke-linejoin="round"/> <path d="M12 28H16" stroke="#ddd" stroke-width="4" stroke-linecap="round" stroke-linejoin="round"/> <circle cx="30" cy="27" r="6" fill="#8758ff" stroke="#ddd" stroke-width="4"/> <path d="M30 40L34 42V31.4722C34 31.4722 32.8594 33 30 33C27.1406 33 26 31.5 26 31.5V42L30 40Z" fill="#8758ff" stroke="#ddd" stroke-width="4" stroke-linecap="round" stroke-linejoin="round"/> </g>
</svg>