<svg width="411.44374999999997px" height="116px" xmlns="http://www.w3.org/2000/svg" viewBox="44.27812500000002 17 411.44374999999997 116" style="background: rgba(0, 0, 0, 0);" preserveAspectRatio="xMidYMid"><defs><filter id="editing-hole" x="-100%" y="-100%" width="300%" height="300%"><feFlood flood-color="#ffffff" result="black"></feFlood><feMorphology operator="dilate" radius="2" in="SourceGraphic" result="erode"></feMorphology><feGaussianBlur in="erode" stdDeviation="4" result="blur"></feGaussianBlur><feOffset in="blur" dx="2" dy="2" result="offset"></feOffset><feComposite operator="atop" in="offset" in2="black" result="merge"></feComposite><feComposite operator="in" in="merge" in2="SourceGraphic" result="inner-shadow"></feComposite></filter></defs><g filter="url(#editing-hole)"><g transform="translate(106.77999204397202, 96.05999946594238)"><path d="M26.10-9.24L26.10-9.24L26.10-9.24Q27.24-7.80 27.24-5.01L27.24-5.01L27.24-5.01Q27.24-2.22 25.11-0.51L25.11-0.51L25.11-0.51Q22.98 1.20 19.26 1.20L19.26 1.20L19.26 1.20Q17.10 1.20 13.74 0.72L13.74 0.72L13.74 0.72Q7.14-0.30 5.25-0.30L5.25-0.30L5.25-0.30Q3.36-0.30 2.58-0.21L2.58-0.21L2.58-0.21Q1.80-0.12 0.54 0L0.54 0L7.80-39.60L20.94-39.60L14.94-6.60L14.94-6.60Q15.72-6.48 16.44-6.48L16.44-6.48L17.94-6.48L17.94-6.48Q22.98-6.48 26.10-9.24ZM31.56-14.64L31.56-14.64L31.56-14.64Q31.56-25.98 37.44-33.12L37.44-33.12L37.44-33.12Q43.68-40.86 54.54-40.86L54.54-40.86L54.54-40.86Q62.40-40.86 66.36-37.05L66.36-37.05L66.36-37.05Q70.32-33.24 70.32-25.20L70.32-25.20L70.32-25.20Q70.32-12.96 64.08-5.82L64.08-5.82L64.08-5.82Q57.90 1.20 47.52 1.20L47.52 1.20L47.52 1.20Q39.42 1.20 35.49-2.85L35.49-2.85L35.49-2.85Q31.56-6.90 31.56-14.64ZM47.34-27.06L47.34-27.06L47.34-27.06Q44.64-16.26 44.64-7.74L44.64-7.74L44.64-7.74Q44.64-5.70 45.33-4.38L45.33-4.38L45.33-4.38Q46.02-3.06 47.85-3.06L47.85-3.06L47.85-3.06Q49.68-3.06 50.82-3.93L50.82-3.93L50.82-3.93Q51.96-4.80 52.86-6.78L52.86-6.78L52.86-6.78Q54.30-10.02 55.65-16.89L55.65-16.89L55.65-16.89Q57-23.76 57.12-26.61L57.12-26.61L57.12-26.61Q57.24-29.46 57.24-31.62L57.24-31.62L57.24-31.62Q57.24-33.78 56.58-35.16L56.58-35.16L56.58-35.16Q55.92-36.54 54.15-36.54L54.15-36.54L54.15-36.54Q52.38-36.54 51.18-35.46L51.18-35.46L51.18-35.46Q48.96-33.42 47.34-27.06ZM97.56-19.32L109.68-20.40L109.68-20.40Q105.36-10.92 105.36 0.06L105.36 0.06L105.36 0.06Q103.74 1.20 101.37 1.20L101.37 1.20L101.37 1.20Q99 1.20 97.50 0.09L97.50 0.09L97.50 0.09Q96-1.02 95.70-2.16L95.70-2.16L95.70-2.16Q94.20-0.60 91.77 0.30L91.77 0.30L91.77 0.30Q89.34 1.20 86.76 1.20L86.76 1.20L86.76 1.20Q84.18 1.20 81.93 0.36L81.93 0.36L81.93 0.36Q79.68-0.48 77.94-2.34L77.94-2.34L77.94-2.34Q74.10-6.42 74.10-14.16L74.10-14.16L74.10-14.16Q74.10-26.16 80.52-33.36L80.52-33.36L80.52-33.36Q87.12-40.80 98.82-40.80L98.82-40.80L98.82-40.80Q106.92-40.80 109.80-36.60L109.80-36.60L109.80-36.60Q110.70-35.28 110.70-33.69L110.70-33.69L110.70-33.69Q110.70-32.10 110.01-30.75L110.01-30.75L110.01-30.75Q109.32-29.40 108.24-28.32L108.24-28.32L108.24-28.32Q105.66-25.92 102.48-25.92L102.48-25.92L102.48-25.92Q101.22-25.92 100.02-26.34L100.02-26.34L100.02-26.34Q100.26-28.14 100.26-30.24L100.26-30.24L100.26-30.24Q100.26-32.34 100.11-33.30L100.11-33.30L100.11-33.30Q99.96-34.26 99.60-35.04L99.60-35.04L99.60-35.04Q98.82-36.66 97.11-36.66L97.11-36.66L97.11-36.66Q95.40-36.66 93.51-34.83L93.51-34.83L93.51-34.83Q91.62-33 90.12-30L90.12-30L90.12-30Q86.82-23.28 86.82-15.18L86.82-15.18L86.82-15.18Q86.82-11.46 88.26-8.82L88.26-8.82L88.26-8.82Q89.82-5.94 92.58-5.94L92.58-5.94L92.58-5.94Q93.54-5.94 94.41-6.42L94.41-6.42L94.41-6.42Q95.28-6.90 95.64-7.26L95.64-7.26L97.56-19.32ZM113.52-14.64L113.52-14.64L113.52-14.64Q113.52-25.98 119.40-33.12L119.40-33.12L119.40-33.12Q125.64-40.86 136.50-40.86L136.50-40.86L136.50-40.86Q144.36-40.86 148.32-37.05L148.32-37.05L148.32-37.05Q152.28-33.24 152.28-25.20L152.28-25.20L152.28-25.20Q152.28-12.96 146.04-5.82L146.04-5.82L146.04-5.82Q139.86 1.20 129.48 1.20L129.48 1.20L129.48 1.20Q121.38 1.20 117.45-2.85L117.45-2.85L117.45-2.85Q113.52-6.90 113.52-14.64ZM129.30-27.06L129.30-27.06L129.30-27.06Q126.60-16.26 126.60-7.74L126.60-7.74L126.60-7.74Q126.60-5.70 127.29-4.38L127.29-4.38L127.29-4.38Q127.98-3.06 129.81-3.06L129.81-3.06L129.81-3.06Q131.64-3.06 132.78-3.93L132.78-3.93L132.78-3.93Q133.92-4.80 134.82-6.78L134.82-6.78L134.82-6.78Q136.26-10.02 137.61-16.89L137.61-16.89L137.61-16.89Q138.96-23.76 139.08-26.61L139.08-26.61L139.08-26.61Q139.20-29.46 139.20-31.62L139.20-31.62L139.20-31.62Q139.20-33.78 138.54-35.16L138.54-35.16L138.54-35.16Q137.88-36.54 136.11-36.54L136.11-36.54L136.11-36.54Q134.34-36.54 133.14-35.46L133.14-35.46L133.14-35.46Q130.92-33.42 129.30-27.06ZM160.02-29.22L160.02-29.22L160.02-29.22Q157.98-30.78 157.98-34.11L157.98-34.11L157.98-34.11Q157.98-37.44 160.17-39.18L160.17-39.18L160.17-39.18Q162.36-40.92 166.14-40.92L166.14-40.92L166.14-40.92Q168.54-40.92 174.24-40.08L174.24-40.08L178.32-39.48L178.32-39.48Q180.36-39.24 182.49-39.24L182.49-39.24L182.49-39.24Q184.62-39.24 186.06-40.14L186.06-40.14L186.06-40.14Q188.22-38.22 188.22-35.46L188.22-35.46L188.22-35.46Q188.22-32.70 185.76-30.72L185.76-30.72L185.76-30.72Q183.24-28.62 180-28.62L180-28.62L180-28.62Q178.44-28.62 175.92-29.04L175.92-29.04L175.92-29.04Q172.98-19.80 172.98-13.38L172.98-13.38L172.98-13.38Q172.98-6.96 176.22-3.60L176.22-3.60L176.22-3.60Q174.72-0.90 172.50 0.15L172.50 0.15L172.50 0.15Q170.28 1.20 166.95 1.20L166.95 1.20L166.95 1.20Q163.62 1.20 161.55-0.63L161.55-0.63L161.55-0.63Q159.48-2.46 159.48-6.24L159.48-6.24L159.48-6.24Q159.48-10.62 161.88-17.82L161.88-17.82L161.88-17.82Q164.28-24.96 167.88-30.42L167.88-30.42L167.88-30.42Q166.14-30.60 164.34-30.60L164.34-30.60L164.34-30.60Q160.62-30.60 160.02-29.22ZM198.72 0L185.64 0L193.26-39.60L206.46-39.60L198.72 0ZM231.24-40.02L231.24-40.02L231.24-40.02Q245.94-40.02 245.94-29.64L245.94-29.64L245.94-29.64Q245.94-23.94 242.28-20.52L242.28-20.52L242.28-20.52Q238.68-17.10 232.38-17.10L232.38-17.10L232.38-17.10Q229.44-17.10 227.16-18.78L227.16-18.78L227.16-18.78Q226.08-19.50 225.36-20.46L225.36-20.46L225.36-20.46Q229.74-20.46 232.05-23.13L232.05-23.13L232.05-23.13Q234.36-25.80 234.36-31.02L234.36-31.02L234.36-31.02Q234.36-36.24 229.20-36.24L229.20-36.24L227.76-36.24L227.76-36.24Q227.40-36.24 227.10-36.18L227.10-36.18L220.20 0L207.18 0L214.56-39.30L214.56-39.30Q220.98-39.90 224.70-39.96L224.70-39.96L224.70-39.96Q228.42-40.02 231.24-40.02ZM247.14-14.64L247.14-14.64L247.14-14.64Q247.14-25.98 253.02-33.12L253.02-33.12L253.02-33.12Q259.26-40.86 270.12-40.86L270.12-40.86L270.12-40.86Q277.98-40.86 281.94-37.05L281.94-37.05L281.94-37.05Q285.90-33.24 285.90-25.20L285.90-25.20L285.90-25.20Q285.90-12.96 279.66-5.82L279.66-5.82L279.66-5.82Q273.48 1.20 263.10 1.20L263.10 1.20L263.10 1.20Q255.00 1.20 251.07-2.85L251.07-2.85L251.07-2.85Q247.14-6.90 247.14-14.64ZM262.92-27.06L262.92-27.06L262.92-27.06Q260.22-16.26 260.22-7.74L260.22-7.74L260.22-7.74Q260.22-5.70 260.91-4.38L260.91-4.38L260.91-4.38Q261.60-3.06 263.43-3.06L263.43-3.06L263.43-3.06Q265.26-3.06 266.40-3.93L266.40-3.93L266.40-3.93Q267.54-4.80 268.44-6.78L268.44-6.78L268.44-6.78Q269.88-10.02 271.23-16.89L271.23-16.89L271.23-16.89Q272.58-23.76 272.70-26.61L272.70-26.61L272.70-26.61Q272.82-29.46 272.82-31.62L272.82-31.62L272.82-31.62Q272.82-33.78 272.16-35.16L272.16-35.16L272.16-35.16Q271.50-36.54 269.73-36.54L269.73-36.54L269.73-36.54Q267.96-36.54 266.76-35.46L266.76-35.46L266.76-35.46Q264.54-33.42 262.92-27.06Z" fill="#dacf25"></path></g></g><style>text {
  font-size: 64px;
  font-family: Arial Black;
  dominant-baseline: central;
  text-anchor: middle;
}</style></svg>