<svg width="100px" height="75px" xmlns="http://www.w3.org/2000/svg" viewBox="170 30 158 95" style="background: rgba(0, 0, 0, 0);" preserveAspectRatio="none"><defs><linearGradient id="editing-sticker-gradient" x1="0.5" y1="0.2" x2="0.5" y2="0.8"><stop offset="0" stop-color="#fafafa"></stop><stop offset="1" stop-color="#8758ff"></stop></linearGradient><filter id="editing-sticker" x="-100%" y="-100%" width="300%" height="300%"><feMorphology operator="erode" radius="1" in="SourceAlpha" result="alpha-erode"></feMorphology><feConvolveMatrix order="3,3" divisor="1" kernelMatrix="0 1 0 1 1 1 0 1 0" in="alpha-erode" result="alpha-round"></feConvolveMatrix><feMorphology operator="dilate" radius="3.5" in="alpha-round" result="dilate-shadow"></feMorphology><feGaussianBlur in="dilate-shadow" stdDeviation="1.5" result="shadow"></feGaussianBlur><feFlood flood-color="#000" result="flood-sticker"></feFlood><feComposite operator="in" in="flood-sticker" in2="alpha-round" result="comp-sticker"></feComposite><feMorphology operator="dilate" radius="3" in="comp-sticker" result="morph-sticker"></feMorphology><feConvolveMatrix order="3,3" divisor="1" kernelMatrix="0 1 0 1 1 1 0 1 0" in="morph-sticker" result="sticker"></feConvolveMatrix><feMerge><feMergeNode in="shadow"></feMergeNode><feMergeNode in="sticker"></feMergeNode><feMergeNode in="SourceGraphic"></feMergeNode></feMerge></filter></defs><g filter="url(#editing-sticker)"><g transform="translate(177.61501717567444, 114.30000114440918)"><path d="M52.64-2.46L52.64-2.46L52.64-2.46Q50.92-0.98 47.29 0.12L47.29 0.12L47.29 0.12Q43.66 1.23 39.36 1.23L39.36 1.23L39.36 1.23Q34.19 1.23 30.50-0.31L30.50-0.31L30.50-0.31Q26.81-1.84 25.46-4.55L25.46-4.55L25.46-4.55Q24.11-7.38 22.14-11.87L22.14-11.87L22.14-11.87Q20.17-16.36 18.02-21.89L18.02-21.89L18.02-21.89Q15.87-27.43 13.59-33.64L13.59-33.64L13.59-33.64Q11.32-39.85 9.22-46.25L9.22-46.25L9.22-46.25Q7.13-52.64 5.29-58.79L5.29-58.79L5.29-58.79Q3.44-64.94 2.09-70.36L2.09-70.36L2.09-70.36Q3.81-72.08 7.07-73.49L7.07-73.49L7.07-73.49Q10.33-74.91 14.02-74.91L14.02-74.91L14.02-74.91Q18.57-74.91 21.46-73.00L21.46-73.00L21.46-73.00Q24.35-71.09 25.71-65.93L25.71-65.93L25.71-65.93Q29.03-53.87 32.41-42.87L32.41-42.87L32.41-42.87Q35.79-31.86 39.48-19.93L39.48-19.93L40.22-19.93L40.22-19.93Q43.54-31.49 47.05-45.14L47.05-45.14L47.05-45.14Q50.55-58.79 53.75-72.32L53.75-72.32L53.75-72.32Q55.96-73.43 58.49-74.17L58.49-74.17L58.49-74.17Q61.01-74.91 64.21-74.91L64.21-74.91L64.21-74.91Q68.76-74.91 71.95-72.88L71.95-72.88L71.95-72.88Q75.15-70.85 75.15-66.17L75.15-66.17L75.15-66.17Q75.15-63.47 73.86-58.30L73.86-58.30L73.86-58.30Q72.57-53.14 70.54-46.68L70.54-46.68L70.54-46.68Q68.51-40.22 65.99-33.21L65.99-33.21L65.99-33.21Q63.47-26.20 60.95-19.99L60.95-19.99L60.95-19.99Q58.42-13.78 56.21-9.04L56.21-9.04L56.21-9.04Q54.00-4.30 52.64-2.46ZM112.91-27.92L107.75-29.64L107.75-29.64Q102.34-31.49 97.91-33.39L97.91-33.39L97.91-33.39Q93.48-35.30 90.28-38.01L90.28-38.01L90.28-38.01Q87.08-40.71 85.30-44.46L85.30-44.46L85.30-44.46Q83.52-48.22 83.52-53.63L83.52-53.63L83.52-53.63Q83.52-64.08 91.57-70.36L91.57-70.36L91.57-70.36Q99.63-76.63 114.14-76.63L114.14-76.63L114.14-76.63Q119.43-76.63 123.98-75.89L123.98-75.89L123.98-75.89Q128.53-75.15 131.79-73.62L131.79-73.62L131.79-73.62Q135.05-72.08 136.90-69.68L136.90-69.68L136.90-69.68Q138.74-67.28 138.74-64.08L138.74-64.08L138.74-64.08Q138.74-60.88 137.27-58.61L137.27-58.61L137.27-58.61Q135.79-56.33 133.70-54.73L133.70-54.73L133.70-54.73Q131.00-56.46 126.44-57.75L126.44-57.75L126.44-57.75Q121.89-59.04 116.48-59.04L116.48-59.04L116.48-59.04Q110.95-59.04 108.36-57.50L108.36-57.50L108.36-57.50Q105.78-55.96 105.78-53.63L105.78-53.63L105.78-53.63Q105.78-51.78 107.38-50.61L107.38-50.61L107.38-50.61Q108.98-49.45 112.18-48.46L112.18-48.46L118.69-46.37L118.69-46.37Q130.26-42.68 136.47-36.96L136.47-36.96L136.47-36.96Q142.68-31.24 142.68-21.40L142.68-21.40L142.68-21.40Q142.68-10.95 134.44-4.49L134.44-4.49L134.44-4.49Q126.20 1.97 110.21 1.97L110.21 1.97L110.21 1.97Q104.55 1.97 99.69 1.05L99.69 1.05L99.69 1.05Q94.83 0.12 91.20-1.66L91.20-1.66L91.20-1.66Q87.58-3.44 85.55-6.09L85.55-6.09L85.55-6.09Q83.52-8.73 83.52-12.18L83.52-12.18L83.52-12.18Q83.52-15.74 85.61-18.27L85.61-18.27L85.61-18.27Q87.70-20.79 90.16-22.14L90.16-22.14L90.16-22.14Q93.60-19.43 98.58-17.47L98.58-17.47L98.58-17.47Q103.57-15.50 109.47-15.50L109.47-15.50L109.47-15.50Q115.50-15.50 117.96-17.34L117.96-17.34L117.96-17.34Q120.42-19.19 120.42-21.65L120.42-21.65L120.42-21.65Q120.42-24.11 118.45-25.40L118.45-25.40L118.45-25.40Q116.48-26.69 112.91-27.92L112.91-27.92Z" fill="url(#editing-sticker-gradient)" stroke="#eee" stroke-width="2"></path></g></g><style>text {
  font-size: 64px;
  font-family: Arial Black;
  dominant-baseline: central;
  text-anchor: middle;
}</style></svg>