<svg width="123.575px" height="153.2px" xmlns="http://www.w3.org/2000/svg" viewBox="188.2125 -1.5999999999999943 123.575 153.2" style="background: rgba(0, 0, 0, 0);" preserveAspectRatio="xMidYMid"><defs><filter id="editing-extrusion" x="-100%" y="-100%" width="300%" height="300%"><feFlood result="color1" flood-color="#eeeeee"></feFlood><feConvolveMatrix order="1,1" divisor="1" kernelMatrix="1" in="SourceAlpha" result="extrude"></feConvolveMatrix><feComposite in="color1" in2="extrude" result="comp-extrude" operator="in"></feComposite><feOffset dx="0.5" dy="0.5" in="comp-extrude" result="offset-extrude"></feOffset><feMerge><feMergeNode in="offset-extrude"></feMergeNode><feMergeNode in="SourceGraphic"></feMergeNode></feMerge></filter></defs><g filter="url(#editing-extrusion)"><g transform="translate(212.3350030183792, 95.44499969482422)"><path d="M27.39-1.28L27.39-1.28L27.39-1.28Q26.50-0.51 24.61 0.06L24.61 0.06L24.61 0.06Q22.72 0.64 20.48 0.64L20.48 0.64L20.48 0.64Q17.79 0.64 15.87-0.16L15.87-0.16L15.87-0.16Q13.95-0.96 13.25-2.37L13.25-2.37L13.25-2.37Q12.54-3.84 11.52-6.18L11.52-6.18L11.52-6.18Q10.50-8.51 9.38-11.39L9.38-11.39L9.38-11.39Q8.26-14.27 7.07-17.50L7.07-17.50L7.07-17.50Q5.89-20.74 4.80-24.06L4.80-24.06L4.80-24.06Q3.71-27.39 2.75-30.59L2.75-30.59L2.75-30.59Q1.79-33.79 1.09-36.61L1.09-36.61L1.09-36.61Q1.98-37.50 3.68-38.24L3.68-38.24L3.68-38.24Q5.38-38.98 7.30-38.98L7.30-38.98L7.30-38.98Q9.66-38.98 11.17-37.98L11.17-37.98L11.17-37.98Q12.67-36.99 13.38-34.30L13.38-34.30L13.38-34.30Q15.10-28.03 16.86-22.30L16.86-22.30L16.86-22.30Q18.62-16.58 20.54-10.37L20.54-10.37L20.93-10.37L20.93-10.37Q22.66-16.38 24.48-23.49L24.48-23.49L24.48-23.49Q26.30-30.59 27.97-37.63L27.97-37.63L27.97-37.63Q29.12-38.21 30.43-38.59L30.43-38.59L30.43-38.59Q31.74-38.98 33.41-38.98L33.41-38.98L33.41-38.98Q35.78-38.98 37.44-37.92L37.44-37.92L37.44-37.92Q39.10-36.86 39.10-34.43L39.10-34.43L39.10-34.43Q39.10-33.02 38.43-30.34L38.43-30.34L38.43-30.34Q37.76-27.65 36.70-24.29L36.70-24.29L36.70-24.29Q35.65-20.93 34.34-17.28L34.34-17.28L34.34-17.28Q33.02-13.63 31.71-10.40L31.71-10.40L31.71-10.40Q30.40-7.17 29.25-4.70L29.25-4.70L29.25-4.70Q28.10-2.24 27.39-1.28ZM58.75-14.53L56.06-15.42L56.06-15.42Q53.25-16.38 50.94-17.38L50.94-17.38L50.94-17.38Q48.64-18.37 46.98-19.78L46.98-19.78L46.98-19.78Q45.31-21.18 44.38-23.14L44.38-23.14L44.38-23.14Q43.46-25.09 43.46-27.90L43.46-27.90L43.46-27.90Q43.46-33.34 47.65-36.61L47.65-36.61L47.65-36.61Q51.84-39.87 59.39-39.87L59.39-39.87L59.39-39.87Q62.14-39.87 64.51-39.49L64.51-39.49L64.51-39.49Q66.88-39.10 68.58-38.30L68.58-38.30L68.58-38.30Q70.27-37.50 71.23-36.26L71.23-36.26L71.23-36.26Q72.19-35.01 72.19-33.34L72.19-33.34L72.19-33.34Q72.19-31.68 71.42-30.50L71.42-30.50L71.42-30.50Q70.66-29.31 69.57-28.48L69.57-28.48L69.57-28.48Q68.16-29.38 65.79-30.05L65.79-30.05L65.79-30.05Q63.42-30.72 60.61-30.72L60.61-30.72L60.61-30.72Q57.73-30.72 56.38-29.92L56.38-29.92L56.38-29.92Q55.04-29.12 55.04-27.90L55.04-27.90L55.04-27.90Q55.04-26.94 55.87-26.34L55.87-26.34L55.87-26.34Q56.70-25.73 58.37-25.22L58.37-25.22L61.76-24.13L61.76-24.13Q67.78-22.21 71.01-19.23L71.01-19.23L71.01-19.23Q74.24-16.26 74.24-11.14L74.24-11.14L74.24-11.14Q74.24-5.70 69.95-2.34L69.95-2.34L69.95-2.34Q65.66 1.02 57.34 1.02L57.34 1.02L57.34 1.02Q54.40 1.02 51.87 0.54L51.87 0.54L51.87 0.54Q49.34 0.06 47.46-0.86L47.46-0.86L47.46-0.86Q45.57-1.79 44.51-3.17L44.51-3.17L44.51-3.17Q43.46-4.54 43.46-6.34L43.46-6.34L43.46-6.34Q43.46-8.19 44.54-9.50L44.54-9.50L44.54-9.50Q45.63-10.82 46.91-11.52L46.91-11.52L46.91-11.52Q48.70-10.11 51.30-9.09L51.30-9.09L51.30-9.09Q53.89-8.06 56.96-8.06L56.96-8.06L56.96-8.06Q60.10-8.06 61.38-9.02L61.38-9.02L61.38-9.02Q62.66-9.98 62.66-11.26L62.66-11.26L62.66-11.26Q62.66-12.54 61.63-13.22L61.63-13.22L61.63-13.22Q60.61-13.89 58.75-14.53L58.75-14.53Z" fill="#8758ff"></path></g></g><style>text {
  font-size: 64px;
  font-family: Arial Black;
  dominant-baseline: central;
  text-anchor: middle;
}</style></svg>